<?xml version="1.0" encoding="UTF-8"?>
<!DOCTYPE svg  PUBLIC '-//W3C//DTD SVG 1.1//EN'  'http://www.w3.org/Graphics/SVG/1.1/DTD/svg11.dtd'>
<svg enable-background="new 0 0 1009.071 1712.498" version="1.1" viewBox="0 0 1009.071 1712.498" xml:space="preserve" xmlns="http://www.w3.org/2000/svg">
<path d="m554.99 58.925c1.001 0.08 88.002 10.549 86.401 21.86-0.781 11.809-12.845 41.032-15.128 45.687-10.483 22.653 14.656 39.981 29.291 26.641 5.34-6.855 6.76-15.903 9.408-20.416 20.206-47.823-4.424-59.808 119.51 17.692 14.242 10.868 38.194 31.553 41.753 36.465 0.666 2.575 0.528 5.586-1.167 7.782-3.746 5.264-10.461 16.736-35.911 45.644-2.719 3.673-6.418 6.647-8.342 10.885-8.911 16.721 10.251 38.341 21.146 28.598 11.938-13.717 13.202-14.071 18.15-20.725 12.403-13.115 18.023-24.492 29.403-34.072 5.422-4.256 6.501-2.898 12.596 3.427 35.828 39.664 74.302 124.36 78.395 213.74 2.142 46.772 4.975 93.509 6.981 140.29 1.937 45.184-1.607 92.084 3.408 136.92-0.469 2.393-0.32 4.856-0.778 7.255 0.229-0.043 0.693-0.133 0.922-0.181-1.426 32.463 9.136 531.14 10.224 538.15-1.089 9.446 3.981 174.04 0.677 190.66-0.98 3.836-11.832 3.625-14.11 6.818 23.983 8.354 25.224-20.506 26.657 57.446 0.192 1.962 1.351 96.047 0.57 97.968-0.816 2.107-1.385 9.612-0.277 13.433-0.73 1.119-1.551 2.207-2.079 3.449-0.544 1.258-0.304 2.964-1.62 3.779-1.738 1.269-2.825 3.449-5.021 4.019-1.647 0.609-9.043 6.876-17.116 6.62-53.424-1.694-107.22 3.661-160.67 4.696-54.942 1.063-109.9 0.292-164.84-0.474-158.99-2.218-349.74 3.362-494.33 1.375-3.753 0.187-7.42-0.906-11.173-0.826-20.072 0.327-55.369-4.375-55.468-4.376-2.527 0.091-4.456-1.78-6.663-2.697-1.759-0.986-4.024-1.482-4.947-3.47-0.766-1.42-10.217-12.604-11.087-13.966-11.789-18.224-3.95-8.602-5.538-44.52-0.05-3.248 1.449-67.043 1.125-62.92 2.247-28.554-1.592-24.944 7.804-37.43 14.292-14.292 6.358-10.224 121.48-11.694 118.22-1.509 107.09 5.438 116.84-27.746 3.924-13.299 27.718-76.731 27.718-76.731 9.313-21.432 130.75-364.52 155.68-419.42 8.321-17.676 14.232-36.322 20.346-54.834 20.285-64.473 15.402-63.826 5.885-132.76 0.334-5.425-6.617-47.329-2.111-64.36 1.86-6.636-4.162-11.443-10.821-12.873-14.924-1.311-15.017 12.436-15.954 15.357-1.103 4.76-4.094 8.833-7.543 12.191 0 0-35.675 39.433-35.677 39.435 0 0-17.986 23.086-28.496 34.994-8.093 10.418-17.391 8.767-48.608 85.18-5.329 13.808-15.093 53.117-16.897 68.395-8.498 71.947-6.695 65.808-15.229 65.575-39.246-3.052-35.372 3.186-49.951-6.258-98.486-75.776-62.939 12.207-115.36 2.921-5.837-0.741-12.057 0.981-17.574-1.647-14.99-7.252-18.189-0.291-37.75-0.101-14.496-0.31-26.383 2.431-26.135-36.263 0.421-19.789 1.161-14.268 4.104-20.453 8.055-57.483 4.78-239.14 17.825-325.98 2.492-16.547 4.691-43.752 4.691-43.752 2.334-12.982-17.968-16.492-0.522-52.798 6.089-14.879 4.382-8.48 2.548-21.684-2.45-16.543-8.942-31.89-4.243-42.889 2.276-5.325 5.586-10.272 6.887-15.97-1.486-17.17-4.747-13.291-5.128-44.69 0.725-5.981 4.355-11.167 5.368-17.079 0.219-3.422-1.972-6.311-2.846-9.493-3.334-12.116-5.296-65.521-4.984-72.568-0.394-5.865 0.859-22.987 0.837-23.987-0.138-13.89 12.993-20.365 14.323-26.194 2.467-10.628 5.784-14.989 10.618-20.821 85.268-88.748 167.82-115.57 245.02-144.66 41.197-12.817 37.411-10.69 38.448 25.858-2.101 25.211 30.929 30.852 39.456 4.616 0.554-2.307 0.302-28.69-0.613-34.658-0.528-3.406-0.021-6.855 0.453-10.234 5.524-7.975 67.466-12.612 119.77-7.143z"/>
</svg>
